<svg id="svg" version="1.1" xmlns="http://www.w3.org/2000/svg" xmlns:xlink="http://www.w3.org/1999/xlink" width="25" height="25" viewBox="0, 0, 400,400"><g id="svgg"><path id="path0" d="M18.983 1.531 C 15.333 3.756,13.818 7.194,14.240 12.291 C 14.804 19.082,15.603 19.586,46.499 32.641 L 73.828 44.188 74.219 169.946 L 74.609 295.703 76.359 300.781 C 81.792 316.549,95.693 329.293,110.015 331.635 C 112.767 332.085,113.283 332.424,112.812 333.476 C 98.098 366.379,118.202 400.000,152.590 400.000 C 185.176 400.000,208.076 364.799,193.753 336.725 C 192.892 335.037,192.188 333.466,192.188 333.234 C 192.188 333.002,214.160 332.813,241.016 332.813 C 267.871 332.813,289.844 332.928,289.844 333.068 C 289.844 333.209,288.965 335.487,287.891 338.131 C 275.812 367.857,297.526 400.000,329.688 400.000 C 381.093 400.000,391.969 329.992,343.359 311.993 C 339.644 310.617,333.981 310.528,227.344 310.156 L 115.234 309.766 111.328 307.969 C 106.680 305.832,102.072 301.576,99.738 297.266 C 97.301 292.763,96.604 258.003,98.970 258.960 C 112.071 264.263,109.780 264.180,235.547 263.884 C 338.200 263.641,348.420 263.503,352.308 262.306 C 368.639 257.279,380.758 244.959,384.749 229.328 C 386.804 221.277,386.498 122.413,384.407 118.983 C 381.660 114.479,384.610 114.967,238.003 94.741 L 97.748 75.391 97.505 54.297 C 97.175 25.713,101.835 30.779,59.466 12.948 C 26.173 -1.063,24.166 -1.629,18.983 1.531 M230.078 116.832 C 300.547 126.504,359.346 134.622,360.742 134.873 L 363.281 135.330 363.281 178.183 C 363.281 230.187,362.924 231.837,350.247 238.312 L 346.484 240.234 231.495 240.437 C 117.174 240.639,116.481 240.631,112.218 239.036 C 106.931 237.058,102.052 232.454,99.552 227.087 L 97.672 223.047 97.664 160.762 L 97.656 98.477 99.805 98.862 C 100.986 99.074,159.609 107.160,230.078 116.832 M162.225 335.298 C 176.572 342.463,178.944 360.766,166.926 371.571 C 146.679 389.775,118.050 360.299,136.593 340.341 C 143.320 333.102,153.727 331.054,162.225 335.298 M335.499 333.931 C 351.521 338.753,357.011 357.369,346.082 369.816 C 335.928 381.380,317.218 378.730,310.226 364.736 C 301.778 347.831,317.601 328.544,335.499 333.931 " stroke="none" fill="#000000" fill-rule="evenodd"></path></g></svg>